<?xml version="1.0" standalone="no"?>
<!DOCTYPE svg PUBLIC "-//W3C//DTD SVG 1.1//EN" "http://www.w3.org/Graphics/SVG/1.1/DTD/svg11.dtd" >
<!--
2013-9-30: Created.
-->
<svg>
<metadata>
Created by iconfont
</metadata>
<defs>

<font id="iconfont" horiz-adv-x="1024" >
  <font-face
    font-family="iconfont"
    font-weight="500"
    font-stretch="normal"
    units-per-em="1024"
    ascent="896"
    descent="-128"
  />
    <missing-glyph />
    
    <glyph glyph-name="wenhao" unicode="&#58898;" d="M550.4 51.2c-25.6 0-42.666667 17.066667-42.666667 42.666667v162.133333c0 76.8 64 115.2 123.733334 153.6 68.266667 42.666667 136.533333 85.333333 140.8 179.2 0 119.466667-98.133333 217.6-217.6 217.6s-217.6-98.133333-217.6-217.6c0-25.6-17.066667-42.666667-42.666667-42.666667s-42.666667 17.066667-42.666667 42.666667c0 166.4 136.533333 302.933333 302.933334 302.933333s302.933333-136.533333 302.933333-302.933333c-8.533333-140.8-106.666667-204.8-179.2-247.466667-51.2-29.866667-81.066667-51.2-81.066667-81.066666v-162.133334c-4.266667-25.6-25.6-46.933333-46.933333-46.933333zM550.4-55.466667m-55.466667 0a55.466667 55.466667 0 1 1 110.933334 0 55.466667 55.466667 0 1 1-110.933334 0Z"  horiz-adv-x="1024" />

    
    <glyph glyph-name="shiwaidengbeifen" unicode="&#58911;" d="M269.368 224h35.136A96 96 0 0 0 400 137.808l17.2-167.36A24 24 0 0 0 393.312-56H184.216a24 24 0 0 0-23.92 25.936l13.384 165.792A96 96 0 0 0 269.368 224z m82.88-91.096A48 48 0 0 1 304.512 176h-35.136a48 48 0 0 1-47.84-44.136L210.232-8H366.72l-14.48 140.904zM64-16m24 0l400 0q24 0 24-24l0 0q0-24-24-24l-400 0q-24 0-24 24l0 0q0 24 24 24ZM760 784H312v-560h-48V832h624a68 68 0 0 0 0-136H659.152a24 24 0 0 0 0 48H888a20 20 0 1 1 0 40H760zM776 656m24 0l0 0q24 0 24-24l0-32q0-24-24-24l0 0q-24 0-24 24l0 32q0 24 24 24ZM885.397293 643.000247m19.65965 13.765835l0 0q19.659649 13.765834 33.425483-5.893815l18.354446-26.212865q13.765834-19.659649-5.893815-33.425484l0 0q-19.659649-13.765834-33.425483 5.893815l-18.354446 26.212865q-13.765834 19.659649 5.893815 33.425484ZM675.283408 670.531916m19.659649-13.765834l0 0q19.659649-13.765834 5.893815-33.425484l-18.354446-26.212865q-13.765834-19.659649-33.425483-5.893815l0 0q-19.659649 13.765834-5.893815 33.425484l18.354446 26.212865q13.765834 19.659649 33.425483 5.893815Z"  horiz-adv-x="1024" />

    
    <glyph glyph-name="gou" unicode="&#58927;" d="M409.344-130.848c68.416 124.992 307.456 348.544 478.144 462.656l67.072 40.96c26.432 14.272 49.536 24.064 67.968 28.16-52.608 119.936-6.464 217.408 1.024 329.856l0 0c-63.424-32.448-127.424-78.272-189.12-130.496l-71.424-64.192c-205.696-194.88-369.6-435.072-369.6-435.072L273.28 333.472 0.384 200.8c115.456-41.152 292.096-187.904 408.64-331.584"  horiz-adv-x="1024" />

    
    <glyph glyph-name="tel3" unicode="&#58956;" d="M864.917333 184.32l-0.021333 4.8c0 42.538667-4.885333 52.949333-10.197333 57.898667-11.349333 10.538667-81.557333 39.808-82.24 40.085333-11.349333 4.672-67.477333 24.448-83.434667 24.448-0.704 0-1.493333 0.128-3.285333 0.341333-3.178667 0.405333-7.04 0.853333-11.498667 0.853333-18.496 0-34.922667-8-50.282667-24.469333l-2.005333-2.154667c-12.821333-13.717333-29.738667-31.872-38.72-40.96-10.858667 5.013333-30.613333 15.594667-48.554667 26.112-17.429333 10.133333-73.557333 47.488-100.309333 78.08-24.256 27.712-52.608 67.882667-64.832 85.205333l-4.821333 6.826667c-4.458667 6.122667-4.949333 9.450667-4.949333 10.602667 0 0.512 0 1.856 2.538667 4.309333l3.157333 2.922667c49.429333 46.613333 66.410667 65.365333 69.845333 76.992l0.448 1.365333c0.981333 3.221333 2.218667 7.232 2.218667 12.437333 0 11.882667-5.013333 21.290667-28.416 59.946667-26.688 44.096-59.349333 90.581333-64.533333 97.92-1.962667 3.946667-5.845333 9.173333-13.354667 13.034667-15.786667 8.106667-38.912 5.845333-72.298667-7.189333C196.288 689.130667 170.666667 656 161.450667 587.029333c-1.578667-12.053333-2.389333-24.064-2.389333-35.712 0-53.269333 16.576-106.069333 50.688-161.408 5.162667-8.448 10.282667-16.96 15.466667-25.621333 34.837333-58.090667 70.869333-118.186667 137.941333-165.44l28.373333-20.117333c58.026667-41.216 99.968-70.954667 167.914667-103.253333 12.501333-5.546667 76.8-33.130667 113.962667-33.130667 2.304 0 4.458667 0.085333 6.549333 0.298667 3.562667 0.405333 6.869333 0.704 11.093333 1.045333 36.650667 3.008 92.010667 7.488 135.445333 52.778667C865.322667 136.981333 865.066667 165.482667 864.917333 184.32zM339.114667 487.125333l-3.114667-2.944c-18.538667-17.536-19.413333-41.962667-2.410667-65.28l4.8-6.741333c12.437333-17.621333 41.578667-58.901333 67.072-88.064 32.341333-36.906667 94.848-77.205333 109.802667-85.952 47.850667-27.989333 63.594667-33.749333 72.469333-33.749333 4.245333 0 6.954667 1.365333 8.576 2.154667 6.506667 3.242667 14.677333 11.712 53.632 53.376l2.069333 2.176c14.570667 15.616 21.845333 12.608 29.077333 11.690667 2.944-0.362667 5.632-0.597333 7.637333-0.597333l0.042667 0c5.674667-0.277333 47.957333-12.906667 69.205333-21.610667 28.778667-11.754667 60.992-26.133333 71.274667-31.658667 1.130667-5.461333 2.432-17.877333 2.581333-31.125333l0-1.322667c0-15.381333 0-32.789333-30.378667-64.448-33.194667-34.581333-80.64-38.506667-112.234667-41.109333-4.501333-0.362667-8.661333-0.725333-12.544-1.109333-20.586667-2.048-73.834667 17.536-100.949333 29.504-64.896 30.826667-106.005333 60.032-163.157333 100.586667-8.661333 6.165333-17.706667 12.586667-27.264 19.328-60.501333 42.624-94.4 99.157333-127.168 153.813333l-2.112 3.498667c-4.522667 7.552-9.045333 15.04-13.589333 22.442667C205.013333 470.698667 191.765333 523.733333 199.466667 581.973333c7.445333 55.701333 23.296 76.330667 73.770667 96 19.605333 7.658667 30.634667 9.28 36.437333 9.28 1.365333 0 2.368-0.085333 3.072-0.192 0.042667-0.064 0.106667-0.149333 0.170667-0.234667 8.682667-12.330667 38.954667-55.722667 63.808-96.768 7.274667-12.010667 20.544-33.92 22.698667-40.064-0.106667-0.362667-0.234667-0.832-0.384-1.429333C398.08 546.496 390.954667 536 339.114667 487.125333z"  horiz-adv-x="1024" />

    
    <glyph glyph-name="socialmediaiconwhitetwitter-copy" unicode="&#58909;" d="M1131.14 718.8c-39.84-17.58-82.5-29.52-127.38-34.8 45.96 27.42 81.060 70.68 97.62 122.34-42.78-25.32-90.24-43.44-140.88-53.7-40.32 43.14-97.98 70.26-161.7 70.26-122.4 0-221.64-99.24-221.64-221.58 0-17.52 2.1-34.38 5.76-50.46-183.96 9.060-347.4 97.26-456.6 231.24-19.020-32.7-30.060-70.68-30.060-111.18 0-76.8 39.12-144.84 98.64-184.32-36.42 1.2-70.5 10.74-100.26 27.6-0.060-0.96-0.060-2.1-0.060-3 0-107.1 76.32-196.62 177.78-217.26-18.66-4.86-38.28-7.56-58.5-7.56-14.22 0-28.020 1.2-41.64 4.080 28.2-88.5 110.1-152.28 207-153.84-75.78-59.58-171.36-94.92-275.1-94.92-17.88 0-35.7 1.2-52.98 3.3 98.040-63.3 214.44-99.9 339.66-99.9 407.52 0 630.42 337.74 630.42 630.3 0 9.66-0.12 19.2-0.6 28.74 43.26 31.32 80.76 70.38 110.52 114.66z"  horiz-adv-x="1205" />

    
    <glyph glyph-name="wechat" unicode="&#58939;" d="M464.116992 453.12c71.68 74.24 161.28 102.4 263.68 94.72-10.24 48.64-33.28 92.16-66.56 130.56C528.116992 819.2 292.596992 844.8 133.876992 732.16 44.276992 670.72-6.923008 586.24 0.756992 473.6c5.12-89.6 53.76-156.16 122.88-207.36 17.92-12.8 20.48-25.6 12.8-46.08-10.24-25.6-17.92-48.64-28.16-79.36 38.4 17.92 69.12 35.84 102.4 51.2 12.8 5.12 30.72 7.68 46.08 5.12 43.52-5.12 89.6-10.24 135.68-15.36C371.956992 286.72 392.436992 378.88 464.116992 453.12zM494.836992 655.36c30.72 2.56 58.88-25.6 58.88-56.32 0-30.72-25.6-56.32-56.32-56.32-30.72 0-56.32 25.6-58.88 53.76C438.516992 627.2 466.676992 655.36 494.836992 655.36zM297.716992 593.92c-2.56-30.72-28.16-53.76-58.88-53.76-30.72 2.56-56.32 28.16-53.76 58.88 2.56 30.72 28.16 53.76 58.88 53.76C274.676992 652.8 300.276992 624.64 297.716992 593.92zM950.516992 432.64c-112.64 110.08-294.4 125.44-427.52 35.84-148.48-99.84-156.16-294.4-12.8-404.48 81.92-61.44 176.64-79.36 279.04-56.32 25.6 5.12 46.08 5.12 69.12-10.24 20.48-12.8 40.96-23.04 66.56-35.84-2.56 12.8-5.12 20.48-7.68 25.6-20.48 43.52-12.8 71.68 25.6 104.96C1050.356992 194.56 1050.356992 335.36 950.516992 432.64zM622.836992 304.64c-20.48 0-40.96 17.92-40.96 38.4-2.56 20.48 17.92 43.52 40.96 43.52 20.48 0 40.96-17.92 40.96-38.4C661.236992 325.12 643.316992 304.64 622.836992 304.64zM819.956992 302.08c-23.04 0-38.4 17.92-38.4 40.96 0 23.04 17.92 38.4 38.4 38.4 23.04 0 40.96-17.92 40.96-38.4C860.916992 320 842.996992 302.08 819.956992 302.08z"  horiz-adv-x="1025" />

    
    <glyph glyph-name="in" unicode="&#58897;" d="M351.3 65.4h-136.5v455.1h136.5v-455.1zM851.9 65.4h-136.5v243.2c0 63.4-22.6 94.9-67.3 94.9-35.5 0-57.9-17.6-69.2-53 0-57.4 0-285 0-285h-136.6c0 0 1.8 409.6 0 455.1h107.8l8.3-91h2.8c28 45.5 72.7 76.4 134.1 76.4 46.7 0 84.4-13 113.2-45.6 29-32.6 43.4-76.4 43.4-137.9v-257.1zM353.6 634.3c0-37.7-31.6-68.3-70.6-68.3s-70.6 30.5-70.6 68.3c0 37.7 31.6 68.3 70.6 68.3 38.9 0 70.6-30.6 70.6-68.3z"  horiz-adv-x="1024" />

    
    <glyph glyph-name="suo" unicode="&#59011;" d="M789.202045 542.47671l-20.017651 0 0 95.899046c0 67.93852-25.931827 132.043141-73.021731 180.499266-48.333486 49.73753-113.893728 77.127269-184.60022 77.127269-144.464056 0-257.624244-113.162479-257.624244-257.624244l0-95.899046-19.120209 0c-71.963827 0-130.303273-58.339446-130.303273-130.303273l0-409.864983c0-71.967266 58.339446-130.306712 130.303273-130.306712l554.384055 0c71.967266 0 130.306712 58.339446 130.306712 130.306712L919.508757 412.173437C919.503026 484.137264 861.16358 542.47671 789.202045 542.47671zM301.32152 638.375756c0 117.890381 92.348249 210.242069 210.239776 210.242069 57.791583 0 111.28278-22.289336 150.618925-62.765909 38.447873-39.565377 59.623143-91.93907 59.623143-147.47616l0-95.899046L301.32152 542.47671 301.32152 638.375756zM872.120851 2.310746c0-45.800477-37.12406-82.924537-82.918806-82.924537L234.81799-80.613791c-45.794746 0-82.921098 37.12406-82.921098 82.924537L151.896892 412.173437c0 45.797038 37.126352 82.921098 82.921098 82.921098l554.384055 0c45.794746 0 82.918806-37.12406 82.918806-82.921098L872.120851 2.310746zM509.640336 303.187557c-13.083394 0-23.691087-10.601962-23.691087-23.691087l0-125.561617c0-13.089125 10.607693-23.691087 23.691087-23.691087 13.085687 0 23.687649 10.601962 23.687649 23.691087l0 125.561617C533.329131 292.585595 522.727169 303.187557 509.640336 303.187557z"  horiz-adv-x="1025" />

    
    <glyph glyph-name="whatsapp" unicode="&#59702;" d="M714.666667 300.373333c10.666667-5.546667 17.493333-8.533333 19.626666-12.8 2.56-4.693333 1.706667-26.026667-8.96-50.346666-8.533333-23.893333-52.906667-46.933333-72.533333-47.786667-19.626667-0.853333-20.053333-15.36-126.293333 31.146667-106.24 46.506667-170.24 160-175.36 167.253333-5.12 7.253333-40.96 58.88-39.253334 111.36 2.133333 52.053333 29.44 76.8 40.533334 87.04 10.24 11.093333 21.76 12.373333 29.013333 11.093333h20.053333c6.4 0 15.36 2.56 23.466667-19.2l29.44-79.786666c2.56-5.546667 4.266667-11.946667 0.426667-18.773334l-11.52-17.493333-16.64-17.92c-5.12-5.12-11.093333-10.666667-5.12-21.333333 5.12-11.093333 26.453333-46.506667 56.32-75.946667 38.826667-37.546667 72.96-49.92 83.2-55.466667 10.24-5.973333 16.64-5.12 23.04 1.706667l34.56 40.106667c8.106667 10.666667 14.933333 8.106667 24.746666 4.693333l71.253334-37.546667M512 810.666667a426.666667 426.666667 0 0 0 426.666667-426.666667 426.666667 426.666667 0 0 0-426.666667-426.666667c-84.053333 0-162.133333 24.32-228.266667 66.133334L85.333333-42.666667l66.133334 198.4A425.344 425.344 0 0 0 85.333333 384 426.666667 426.666667 0 0 0 512 810.666667m0-85.333334a341.333333 341.333333 0 0 1-341.333333-341.333333c0-73.386667 23.04-141.226667 62.293333-196.693333L192 64l123.306667 40.96A339.2 339.2 0 0 1 512 42.666667a341.333333 341.333333 0 0 1 341.333333 341.333333 341.333333 341.333333 0 0 1-341.333333 341.333333z"  horiz-adv-x="1024" />

    
    <glyph glyph-name="youxiang" unicode="&#58885;" d="M204.8 682.667h614.4c41.932 0 76.296-33.113 76.795-73.77L512.19 400.386 128.387 608.694c0.383 40.75 34.411 73.973 76.413 73.973z m-76.452-153.812L128 160c0-41.067 34.56-74.667 76.8-74.667h614.4c42.24 0 76.8 33.6 76.8 74.667V529.04L521.194 330.28a19.683 19.683 0 0 0-18.388 0L128.348 528.854z"  horiz-adv-x="1024" />

    
    <glyph glyph-name="kehu" unicode="&#59351;" d="M719.069 334.744c90.011-47.831 157.141-117.308 200.605-209.008C948.311 65.318 961.988 1.249 962-66H62c-0.121 84.076 21.296 162.167 64.843 234.035 43.688 72.1 103.344 127.471 178.106 166.785-58.09 59.806-87.162 131.32-85.274 213.945 1.837 80.399 32.326 149.922 91.019 205.062C428.722 864.71 600.488 854.708 706.863 759.863c118.101-105.299 136.179-298.54 12.206-425.119zM109.618-19.822h803.724c-10.066 109.718-80.608 251.155-232.398 322.16-10.125-6.147-19.693-12.526-29.773-17.952-18.648-10.039-38.159-18.073-58.57-23.954-24.001-6.915-48.534-10.422-73.382-11.14-12.821-0.371-25.74 0.86-38.542 2.116-11.056 1.085-22.283 2.224-32.945 5.132-17.893 4.88-35.922 9.959-52.915 17.239-16.379 7.017-31.694 16.633-47.069 25.791-3.424 2.039-5.524 2.393-8.688 0.681-11.843-6.408-23.941-12.371-35.579-19.128-22.775-13.223-43.671-29.151-63.078-46.867-11.162-10.19-21.613-21.259-31.553-32.657a497.563 497.563 0 0 1-29.154-36.805c-15.952-22.219-29.038-46.148-39.739-71.334-10.447-24.589-18.57-49.943-23.87-76.138-2.45-12.108-4.261-24.344-6.469-37.144z m649.121 560.905c0.068 138.318-110.512 242.356-235.886 247.395-68.669 2.76-129.014-19.602-179.238-66.468-51.792-48.33-78.533-109.047-78.878-179.685-0.327-67.043 23.941-125.691 70.991-173.651 46.913-47.821 104.848-73.292 171.744-74.227 140.162-1.957 251.437 111.106 251.267 246.636z"  horiz-adv-x="1024" />

    
    <glyph glyph-name="youxiang2" unicode="&#58883;" d="M872.558 735.939H152.42c-66.384 0-120.022-53.627-120.022-119.879v-464.275c0-66.25 53.638-119.882 120.022-119.882h720.137c66.136 0 120.022 53.632 120.022 119.882V616.06c0 66.252-53.886 119.879-120.022 119.879z m56.008-584.154c0-30.808-25.13-55.875-56.007-55.875H152.422c-30.882 0-56.008 25.066-56.008 55.875V616.06c0 30.75 25.127 55.878 56.008 55.878h720.137c30.878 0 56.007-25.127 56.007-55.878v-464.275zM833.235 519.802L512.49 313.044 191.618 519.802c-14.881 9.501-34.633 5.256-44.258-9.562-9.505-14.874-5.257-34.686 9.625-44.25l338.19-217.887c5.249-3.434 11.315-5.062 17.315-5.062 6.003 0 12.063 1.628 17.316 5.062L867.865 465.99c14.881 9.564 19.196 29.376 9.571 44.25-9.572 14.877-29.51 19.063-44.2 9.562z"  horiz-adv-x="1025" />

    
    <glyph glyph-name="skype" unicode="&#59517;" d="M883.7 317.4c4.1 22.5 6.3 45.5 6.3 68.5 0 51-10 100.5-29.7 147-19 45-46.3 85.4-81 120.1-34.7 34.7-75.1 61.9-120.1 80.9-46.6 19.7-96 29.7-147 29.7-24 0-48.1-2.3-71.5-6.8-32.3 17.1-68.5 26.2-105.1 26.2-59.7 0-115.9-23.3-158.1-65.5-42.2-42.2-65.5-98.4-65.5-158.1 0-38 9.8-75.4 28.1-108.4-3.7-21.4-5.7-43.3-5.7-65.1 0-51 10-100.5 29.7-147 19-45 46.2-85.4 80.9-120.1 34.7-34.7 75.1-61.9 120.1-80.9 46.6-19.7 96-29.7 147-29.7 22.2 0 44.4 2 66.2 5.9 33.5-18.9 71.3-29 110-29 59.7 0 115.9 23.2 158.1 65.5 42.3 42.2 65.5 98.4 65.5 158.1 0.1 38-9.7 75.5-28.2 108.7z m-88.1-216C766.9 72.6 729 57 688.4 57c-26.1 0-51.8 6.8-74.6 19.7l-22.5 12.7-25.5-4.5c-17.8-3.2-35.8-4.8-53.6-4.8-41.4 0-81.3 8.1-119.1 24.1-36.3 15.3-69 37.3-97.2 65.5-28.1 28.1-50.1 60.7-65.5 97.1-16 37.7-24 77.6-24 119 0 17.4 1.6 35.2 4.6 52.8l4.4 25.1L203 486c-12.5 22.4-19.1 47.8-19.1 73.4 0 40.6 15.7 78.5 44.4 107.2C257.1 695.3 295 711 335.6 711c24.7 0 49.3-6.2 71.4-17.9l22.4-11.8 24.8 4.8c18.9 3.6 38.4 5.5 58 5.5 41.4 0 81.3-8.1 119-24 36.5-15.4 69.1-37.4 97.2-65.5 28.2-28.1 50.2-60.8 65.6-97.2 16-37.7 24-77.6 24-119 0-18.4-1.7-37-5.1-55.5l-4.7-25.5 12.6-22.6c12.6-22.5 19.2-48 19.2-73.7 0-40.7-15.7-78.5-44.4-107.2zM583.4 429.8L495 449.4c-33.6 7.7-72.3 17.8-72.3 49.5s27.1 53.9 76.1 53.9c98.7 0 89.7-67.8 138.7-67.8 25.8 0 48.4 15.2 48.4 41.2 0 60.8-97.4 106.5-180 106.5-89.7 0-185.2-38.1-185.2-139.5 0-48.8 17.4-100.8 113.6-124.9l119.4-29.8c36.1-8.9 45.2-29.2 45.2-47.6 0-30.5-30.3-60.3-85.2-60.3-107.2 0-92.3 82.5-149.7 82.5-25.8 0-44.5-17.8-44.5-43.1 0-49.4 60-115.4 194.2-115.4 127.7 0 191 61.5 191 144 0 53.1-24.5 109.6-121.3 131.2z"  horiz-adv-x="1024" />

    
    <glyph glyph-name="earth" unicode="&#59304;" d="M814.28643724 128.94581872000003c0.17648995 0.26357892 0.43929795 0.53024079 0.61655884 0.79304878 57.82858927 68.77404859 92.61175249 157.41053893 92.61175249 254.25959141 0 96.84442843-34.78316322 185.48245986-92.52158057 254.2549666-0.17648995 0.26280799-0.44392199 0.43929795-0.62041273 0.70750167-0.97030966 1.14679962-1.8535296 2.20728044-2.82383848 3.26776125-0.35375083 0.43929795-0.70673074 0.79227785-1.06048159 1.23311766-1.23311765 1.41346073-2.38377038 2.7367503-3.61611711 4.15098195l-0.09017192 0.08631804c-1.32405973 1.50440357-2.73752123 3.00418234-4.06158095 4.50473279l-0.08554711 0.08631803c-2.82846331 3.00418234-5.65153164 6.00451154-8.56554284 8.91852273l-0.08631803 0.08631881-4.24115386 4.23807091-0.26357892 0.2666611c-1.32328957 1.32328957-2.64657838 2.56026034-3.97449201 3.79337801-0.43929795 0.44469292-0.87936682 0.88322069-1.40883667 1.32868455-0.88322069 0.87859588-1.76798249 1.67626948-2.65120319 2.47008842-0.26280799 0.26203783-0.61655883 0.53024079-0.87936682 0.88399086C710.11343676 739.60412859 615.73447271 779.5078125 512.00077092 779.5078125S313.89349931 739.60412859 243.35686318 674.27510213c-0.26666187-0.26820296-0.62118288-0.53101095-0.88322069-0.88399163-0.88399087-0.79381972-1.76644063-1.67703965-2.64657838-2.56026035-0.44546385-0.44006887-0.88399087-0.88399087-1.41500258-1.32405974-1.32251864-1.23697076-2.65043227-2.56103128-3.97372106-3.79723111l-4.59028067-4.59105082c-2.91478134-2.91478134-5.73785045-5.91511057-8.56168894-8.91466962l-0.09094208-0.09094208c-1.40883668-1.50054968-2.73752123-3.00032922-4.0608108-4.50087967l-0.08631804-0.09094208a79.09678397 79.09678397 0 0 1-3.62074116-4.14635792c-0.35297992-0.44469292-0.70673074-0.79304878-1.06048157-1.23620059-0.96953873-1.06125174-1.8535296-2.20805136-2.82383927-3.26853218-0.17648995-0.26357892-0.43929795-0.44006887-0.61578791-0.70287687C151.27612165 569.48091878 116.4921875 480.84365751 116.4921875 383.99845890999995c0-96.84905248 34.78393415-185.48554283 92.52081041-254.25959141 0.17648995-0.26280799 0.44006887-0.53024079 0.6157879-0.79304878 0.88399087-1.05893973 1.85430052-2.20650951 2.73752123-3.26622015 0.35297992-0.44006887 0.7075009-0.79381972 1.06048081-1.2377417 1.23697076-1.40960761 2.38377038-2.73289642 3.62074117-4.14558775 0-0.09094207 0.08631803-0.09094207 0.0863188-0.17803106 1.32328957-1.49977954 2.65197336-2.99955829 4.06081003-4.41456086l0.09094208-0.09017192c2.82383926-2.99955829 5.6469076-6.00065844 8.4753709-8.91389792l0.08631882-0.09094285c1.41269055-1.40960761 2.7367503-2.82229818 4.15021101-4.14712807l0.26357892-0.26743279c2.91324025-2.90784528 5.9143404-5.73707951 8.91929366-8.47382982 70.71312608-65.32979739 165.08746608-105.23425223 268.82039769-105.23425223 103.73447271 0 198.11343676 39.90445484 268.64930271 105.23425223 3.00110015 2.7367503 5.91511057 5.56598453 8.82835082 8.47382982l0.26357892 0.26743279c1.41346073 1.41500257 2.82769237 2.73752123 4.15098195 4.14712807l0.09017191 0.09094285c2.9101573 2.91324025 5.73785045 5.91511057 8.4753709 8.91389792l0.08554711 0.09017192c1.32405973 1.50054968 2.73752123 2.91401119 4.06158097 4.41456086 0 0.08708897 0.09017192 0.08708897 0.09017191 0.17803106 1.23311765 1.32174772 2.47008843 2.73597938 3.61611712 4.14558775 0.35375083 0.44392199 0.7075009 0.79767283 1.06048158 1.2377417 1.06048082 1.14679962 2.03079048 2.20728044 2.91401042 3.26622015z m3.6215121 125.892054c-12.18628398-28.77942261-28.25226477-55.44173593-47.85343884-79.63319066-21.98032042 18.98615709-46.08160323 35.58160698-71.95009683 49.35321837 10.24258246 41.40654639 16.59622081 86.87004893 18.27788449 134.71963388h126.6835617c-2.64734931-36.10722373-11.12272021-71.15704883-25.15791053-104.43966159z m25.15713958 153.87842706H716.38152799c-1.6816637 47.84881478-8.03530203 93.31462935-18.27788527 134.71886373 25.86849438 13.7739234 49.97054735 30.37399732 71.95009762 49.35398852 19.60117407-24.19145396 35.66715486-50.85376806 47.85343883-79.63241895 14.03596047-33.28338446 22.51133137-68.33320956 25.15790975-104.4404333zM641.16366913 689.90101327c35.04597198-14.83363329 66.91512403-35.31340402 94.99089885-61.0924974-16.33341282-13.9488715-33.89917237-26.22147428-52.43986562-36.90412563-13.85869958 39.72719396-31.60634405 74.2475492-52.26337567 101.87940201 3.26776125-1.23620061 6.53089923-2.55948941 9.71234244-3.88277898z m-79.98539963-618.51635179c-8.12162084-6.35749146-16.24709478-11.21289214-24.45503288-14.47988245V220.67435050999995c35.22323211-2.47548339 69.38983726-10.2433534 102.14298016-23.13097315-7.32857206-21.71905351-15.80317203-41.7595263-25.60183249-59.86015068-15.36310315-28.60139078-33.36970251-51.46416097-52.08611479-66.2985652z m52.08611479 558.925175c9.71234244-18.18771335 18.27326046-38.22818536 25.60183249-59.85860882-32.75314368-12.88916162-66.91974806-20.65703084-102.14298016-23.12711925V711.0019668699999c8.12162084-3.26776125 16.33341282-8.03530203 24.45503288-14.47988322 18.71641228-14.74269122 36.72301162-37.61085637 52.08611479-66.21224717zM536.72323662 270.19943401V359.27676338000003h130.21875497c-1.41423166-39.02123414-6.26809046-76.89335741-14.38894036-112.8256315l-0.26743282-1.06048159c-36.28371368 13.7739234-75.12768695 22.33484141-115.56238179 24.80878372z m0 138.51686577v89.07732937c40.43469564 2.4739423 79.27866889 11.03563124 115.5623818 24.80724264l0.26743281-1.06048082c8.12084991-35.92919191 12.97470873-73.71345529 14.38894037-112.82486134H536.72323662z m-49.4395364-49.4395364v-89.07732937c-40.43469564-2.4739423-79.27866889-11.03486108-115.56161164-24.80801279l-0.2674328 1.06048082c-8.12084991 35.93150393-12.97547965 73.71885026-14.38894038 112.82563226h130.21798482z m-130.21875575 49.4395364c1.41346073 39.02046398 6.26809046 76.8948985 14.38894115 112.82486135l0.26743203 1.06048158c36.28371368-13.77238155 75.0413689-22.33330032 115.56161164-24.80724264v-89.07732935H357.06494447zM487.28370022 220.67435050999995v-163.67940033c-8.12084991 3.26313721-16.33341282 8.03221985-24.45426273 14.47525919-18.71718321 14.74885634-36.81395371 37.6987155-52.1762867 66.30318923-9.70771763 18.18771335-18.27403138 38.22818536-25.60260344 59.85475571 32.8433156 12.88993177 67.00606688 20.57071281 102.23315287 23.0461962z m0 326.6497579c-35.22708597 2.47008843-69.38983726 10.23795842-102.14298094 23.12711926 7.32394723 21.71674149 15.80394296 41.75721428 25.60260343 59.85860881 15.35925004 28.60139078 33.36893157 51.55664492 52.17628671 66.29856598 8.12162084 6.35826238 16.2432409 11.21135104 24.45040883 14.47911151v-163.76417651h-0.08631803zM382.84249677 689.90101327c3.26776125 1.32251864 6.44535135 2.64657838 9.7131126 3.88354993-20.65780177-27.63185206-38.40467531-62.15220728-52.26337566-101.87940203a342.19320411 342.19320411 0 0 0-52.43986485 36.90412563c28.07115077 25.77832246 59.94569778 46.25809319 94.99012791 61.09172647z m-176.74273911-176.7442802c12.18165995 28.77865168 28.25226477 55.440965 47.84958495 79.63241896 21.98340337-18.9799912 46.08468618-35.58083604 71.95472166-49.35398852-10.24412433-41.40423438-16.60161578-86.869278-18.27865544-134.71886373H180.9372231c2.65120242 36.10722373 11.12580316 71.15704883 25.16253456 104.44043329zM180.9372231 359.27676338000003H307.62540883c1.67703965-47.84958495 8.03453187-93.31308826 18.2778845-134.71963388-25.87003546-13.77161062-49.97131828-30.36706126-71.95472166-49.35321836-19.59732096 24.1922249-35.66792501 50.85376806-47.84958495 79.63319066-14.03596047 33.28338446-22.51056121 68.33320956-25.16176362 104.43966158z m201.90527367-281.18471272c-35.04520105 14.83286313-66.91897792 35.31340402-94.99012791 61.09635051 16.32955893 13.94424746 33.89917237 26.21839133 52.43986485 36.89873066 13.85869958-39.72719396 31.60557389-74.24369607 52.26337566-101.87940201-3.26776125 1.2377417-6.53552328 2.56103128-9.7131126 3.88432084z m258.32117236 1e-8c-3.26776125-1.32405973-6.44458042-2.64734931-9.7131126-3.88432085 20.65780177 27.63570593 38.40467531 62.15297822 52.26337489 101.87940201 18.54069325-10.5901674 36.1064528-22.95448319 52.43986562-36.89873065-28.07423295-25.78217633-59.9441567-46.26271723-94.99012791-61.09635051z m0 0"  horiz-adv-x="1026" />

    
    <glyph glyph-name="shipin" unicode="&#58881;" d="M814.545455 709.818182h-230.4l121.018181 86.109091c11.636364 6.981818 13.963636 20.945455 4.654546 32.581818-6.981818 11.636364-20.945455 13.963636-32.581818 4.654545l-165.236364-116.363636-165.236364 116.363636c-11.636364 6.981818-25.6 4.654545-32.581818-4.654545-6.981818-11.636364-4.654545-25.6 4.654546-32.581818L439.854545 709.818182H209.454545c-76.8 0-139.636364-62.836364-139.636363-139.636364v-477.090909c0-76.8 62.836364-139.636364 139.636363-139.636364h605.09091c76.8 0 139.636364 62.836364 139.636363 139.636364V570.181818c0 76.8-62.836364 139.636364-139.636363 139.636364z m93.090909-616.727273c0-51.2-41.890909-93.090909-93.090909-93.090909H209.454545c-51.2 0-93.090909 41.890909-93.090909 93.090909V570.181818c0 51.2 41.890909 93.090909 93.090909 93.090909h605.09091c51.2 0 93.090909-41.890909 93.090909-93.090909v-477.090909zM686.545455 372.36363600000004l-251.345455 144.290909c-6.981818 4.654545-16.290909 6.981818-23.272727 6.981819-23.272727 0-46.545455-18.618182-46.545455-46.545455v-290.909091c0-27.927273 23.272727-46.545455 46.545455-46.545454 6.981818 0 16.290909 2.327273 23.272727 6.981818L686.545455 290.909091c30.254545 18.618182 30.254545 62.836364 0 81.454545z m-274.618182-186.181818V477.090909l251.345454-144.290909-251.345454-146.618182z"  horiz-adv-x="1024" />

    
    <glyph glyph-name="email" unicode="&#58882;" d="M513 312.2l448.5 448.5c-11.6 4.7-24.3 7.3-37.5 7.3H100c-12.7 0-24.9-2.4-36.1-6.7L513 312.2zM513 221.7L14.6 720.1C5.3 704.9 0 687.1 0 668v-568c0-55.2 44.8-100 100-100h824c55.2 0 100 44.8 100 100V668c0 18.5-5.1 35.9-13.9 50.8L513 221.7z"  horiz-adv-x="1024" />

    
    <glyph glyph-name="right" unicode="&#59385;" d="M320 736c0-8.2 3.1-16.4 9.4-22.6L658.7 384 329.4 54.6c-12.5-12.5-12.5-32.8 0-45.3s32.8-12.5 45.3 0l352 352c12.5 12.5 12.5 32.8 0 45.3l-352 352c-12.5 12.5-32.8 12.5-45.3 0-6.3-6.2-9.4-14.4-9.4-22.6z"  horiz-adv-x="1024" />

    
    <glyph glyph-name="tel" unicode="&#58895;" d="M762 332c-68.5 0-130.5-34.5-166.6-91.4-118 14.9-211.2 110.8-222.7 229.3C427 506.5 460 567.5 460 634c0 109.2-88.9 198-198 198-109.2 0-198-88.8-198-198 0-369.3 389.6-698 696.8-698h1.3c109.1 0.3 197.9 89.1 197.9 198 0 109.1-88.8 198-198 198z m-0.1-332h-1.1C485.9 0 128 309.2 128 634c0 72.1 61.9 134 134 134s134-61.9 134-134c0-48.9-22.2-95.3-65.6-117.9l-20.5-11.6 0.5-16.9c3.7-169.3 131.1-306 300.2-313.8h21.1l7.7 17c22 45.6 72.1 77.2 122.6 77.2 72.1 0 134-61.9 134-134 0-71.9-61.9-133.8-134.1-134z"  horiz-adv-x="1024" />

    
    <glyph glyph-name="dianhua" unicode="&#58902;" d="M659.199-128h-0.017c38.393 0 73.611 8.988 104.697 26.754 33.207 18.964 59.112 48.202 81.048 81.841 2.926 5.264 3.221 5.85 6.169 11.25 33.118 60.608-4.087 156.523-94.682 227.868-49.382 38.873-103.966 61.167-149.791 61.167-34.056 0-61.62-12.489-78.307-35.33-3.573-2.338-9.534-5.392-14.425-5.392-1.402 0-4.322 0-8.693 4.952a22 22 0 0 0-0.855 0.915c-25.509 33.08-49.085 68.705-70.122 105.898-19.328 34.196-36.434 69.547-50.856 105.166-1.998 11.255-0.495 16.872 0.788 18.452 0.922 1.133 3.669 1.87 3.69 1.87 24.973 0.592 47.277 11.825 65.025 32.471 33.403 38.869 47.607 107.21 37.976 182.809C476.087 808.599 412.521 896 342.974 896c-0.219 0-1.748-0.023-1.983-0.023-3.3-0.077-6.526-0.396-9.691-0.887-42.687 1.892-81.959-6.995-116.093-26.486-157.975-90.259-161.303-373.947-7.582-645.837C326.263 12.959 507.732-128 659.199-128z m-52.576 351.286c32.655 0 75.326-18.256 114.16-48.823C788.5 121.15 818.38 51.079 803.1 22.422c-2.34-4.388-3.98-7.135-5.264-9.357-15.209-26.33-37.97-50.264-62.53-64.305-22.27-12.734-47.879-19.166-76.106-19.166-129.32 0-294.38 132.21-401.428 321.529-133.31 235.774-139.718 495.644-13.98 567.475 25.225 14.387 54.982 20.74 87.514 18.797a29.768 29.768 0 0 1 7.112 0.47c1.307 0.268 2.642 0.49 3.998 0.541 34.202 0 80.143-65.432 91.293-153.007 7.374-57.89-2.244-112.061-24.515-137.978-10.44-12.142-19.3-12.337-22.203-12.415-2.501 0-29.472-0.838-47.606-23.231-13.836-17.073-17.86-40.203-11.976-68.704a29.617 29.617 0 0 1 1.48-4.93c15.592-38.796 34.167-77.347 55.21-114.574 22.957-40.593 48.783-79.446 76.782-115.483a29.382 29.382 0 0 1 4.142-4.339c13.624-13.868 30.433-21.181 48.874-21.181 29.238 0 51.928 18.92 54.417 21.087a28.71 28.71 0 0 1 5.554 6.504c6.785 10.864 21.562 13.13 32.756 13.13z m90.852 193.969c13.762 0 25.984 9.832 28.55 23.845 4.87 26.53-0.897 53.384-16.217 75.604-15.337 22.198-38.395 37.122-64.936 41.978-15.816 2.882-30.929-7.565-33.822-23.353-2.897-15.794 7.56-30.94 23.349-33.822 11.272-2.07 21.064-8.402 27.568-17.837 6.516-9.407 8.956-20.814 6.9-32.096-2.908-15.79 7.548-30.919 23.337-33.822 1.765-0.324 3.54-0.497 5.271-0.497z m98.21 2.1c13.757 0 25.972 9.803 28.535 23.816 17.664 96.272-46.289 188.944-142.557 206.587-15.743 2.881-30.928-7.565-33.821-23.354-2.897-15.766 7.56-30.919 23.337-33.799 64.74-11.875 107.751-74.203 95.876-138.937-2.892-15.795 7.565-30.942 23.354-33.822a29.23 29.23 0 0 1 5.276-0.492z m112.491-31.734c13.757 0 25.978 9.803 28.551 23.823 14.684 80.081-2.696 161.085-48.951 228.086-46.238 67.006-115.802 111.988-195.89 126.672-15.755 2.88-30.918-7.56-33.82-23.354-2.9-15.788 7.559-30.913 23.352-33.821 64.796-11.876 121.1-48.283 158.534-102.504 37.417-54.244 51.487-119.799 39.611-184.612-2.891-15.766 7.548-30.913 23.342-33.821 1.771-0.325 3.535-0.469 5.271-0.469z"  horiz-adv-x="1024" />

    
    <glyph glyph-name="tel1" unicode="&#58896;" d="M942.618947 134.063158c0-11.048421-2.021053-25.465263-6.197894-43.11579-4.042105-17.785263-8.353684-31.663158-12.8-41.903157-8.623158-20.48-33.549474-42.037895-74.778948-64.943158-38.265263-20.749474-76.261053-31.124211-113.987368-31.124211-11.048421 0-21.962105 0.673684-32.471579 2.290526-10.509474 1.347368-22.366316 4.042105-35.166316 7.68s-22.366316 6.736842-28.833684 8.892632c-6.197895 2.290526-17.650526 6.602105-34.088421 12.530526-16.303158 6.197895-26.273684 9.835789-29.911579 11.048421-40.016842 14.282105-75.722105 31.124211-107.11579 50.930527-52.008421 32.067368-105.768421 76.395789-161.68421 132.311579-55.781053 55.781053-99.974737 109.945263-132.311579 161.68421-19.671579 31.393684-36.648421 67.098947-50.930526 107.11579-1.347368 3.637895-4.850526 13.743158-11.048421 29.911579-6.197895 16.303158-10.374737 27.755789-12.530527 34.088421-2.290526 6.197895-5.12 15.898947-8.892631 28.833684-3.637895 12.8-6.197895 24.522105-7.68 35.166316-1.482105 10.509474-2.290526 21.423158-2.290527 32.471579 0 37.591579 10.509474 75.587368 31.124211 113.987368 22.905263 41.229474 44.463158 66.155789 64.943158 74.778947 10.24 4.446316 24.117895 8.757895 41.903158 12.8 17.785263 4.042105 32.067368 6.197895 43.115789 6.197895 5.658947 0 10.105263-0.673684 12.8-1.751579 7.410526-2.425263 18.054737-18.054737 32.471579-46.618947 4.446316-7.814737 10.509474-18.728421 18.458947-33.145263 7.814737-14.282105 14.955789-27.216842 21.423158-38.938948 6.736842-11.587368 12.8-22.501053 18.863158-32.741052 1.347368-1.616842 4.715789-6.736842 10.778948-15.36 5.928421-8.623158 10.374737-15.898947 13.069473-21.827369 2.829474-5.928421 4.176842-11.722105 4.176842-17.515789 0-8.218947-5.793684-18.458947-17.515789-30.585263-11.587368-12.126316-24.387368-23.444211-37.99579-33.818948-13.743158-10.24-26.273684-21.018947-37.995789-32.471579-11.587368-11.452632-17.515789-20.749474-17.515789-28.16 0-3.637895 0.943158-8.353684 3.098947-13.743158 2.021053-5.524211 3.637895-9.701053 5.12-12.530526 1.347368-2.829474 4.176842-7.814737 8.623158-14.686316 4.176842-7.006316 6.736842-10.913684 7.141052-11.587368 30.989474-55.915789 66.56-103.882105 106.442106-143.898948 40.016842-40.016842 87.983158-75.587368 143.898947-106.442105 0.808421-0.269474 4.581053-2.694737 11.587368-7.141052 7.006316-4.176842 11.856842-7.141053 14.686316-8.623158 2.829474-1.347368 7.141053-3.233684 12.530527-5.12 5.524211-2.021053 10.105263-3.098947 13.743157-3.098948 7.410526 0 16.707368 5.793684 28.16 17.51579 11.452632 11.587368 22.366316 24.387368 32.471579 37.995789 10.24 13.743158 21.423158 26.273684 33.818948 37.99579 12.395789 11.722105 22.366316 17.515789 30.585263 17.515789 5.658947 0 11.587368-1.347368 17.515789-4.176842s13.069474-7.275789 21.827369-13.069474c8.623158-5.928421 13.743158-9.431579 15.36-10.778947 10.24-6.197895 21.288421-12.530526 32.741052-18.863158 11.587368-6.736842 24.522105-13.743158 38.938948-21.423158 14.282105-7.814737 25.465263-13.877895 33.145263-18.458947 28.564211-14.282105 44.058947-25.061053 46.618947-32.471579 1.886316-3.637895 2.56-8.084211 2.56-13.608421z m0 0"  horiz-adv-x="1024" />

    
    <glyph glyph-name="dizhi" unicode="&#58907;" d="M511.488 726.016c-72.192 0-130.56-58.88-130.56-131.072s58.88-131.072 130.56-131.072c72.192 0 131.072 58.88 131.072 131.072S583.68 726.016 511.488 726.016z m80.384-131.072c0-44.544-35.84-80.384-80.384-80.384s-80.384 35.84-80.384 80.384 35.84 80.384 80.384 80.384 80.384-35.84 80.384-80.384zM708.608 244.736c-13.824 2.048-26.624-7.68-28.672-21.504-1.024-6.656 0.512-13.312 4.608-18.432 4.096-5.632 10.24-9.216 16.896-10.24 157.184-22.528 209.92-64 209.92-79.36 0-31.232-141.312-92.16-399.872-92.16s-399.872 60.928-399.872 92.16c0 15.36 52.224 56.832 207.872 79.36 6.656 1.024 12.288 4.096 16.384 9.728 4.096 5.632 6.144 12.288 5.12 18.944-1.024 6.656-4.096 12.288-9.728 16.384-5.632 4.096-12.288 6.144-18.944 5.12-75.776-10.752-251.392-45.056-251.392-129.536 0-44.544 49.664-81.92 143.872-107.52 80.896-22.528 193.024-35.328 307.2-35.328 114.176 0 226.304 12.8 307.2 35.328 93.696 26.112 143.36 62.976 143.36 107.52-0.512 34.816-33.28 98.304-253.952 129.536zM494.08 120.832l17.408-16.384 17.408 16.384c26.112 25.088 253.44 251.904 253.44 465.408 0 149.504-121.344 270.848-270.848 270.848C361.984 857.6 240.64 736.256 240.64 586.752c0-228.864 250.88-463.36 253.44-465.92z m-203.264 465.92c0 121.344 98.816 220.16 220.672 220.16 121.344 0 220.16-98.816 220.16-220.16 0-165.376-164.352-352.256-220.672-411.136-56.32 57.856-220.16 240.64-220.16 411.136z"  horiz-adv-x="1024" />

    
    <glyph glyph-name="hao" unicode="&#58901;" d="M853.95951925 420.4933895h-310.08967642v300.83326917c0 13.88461268-13.88461268 32.39742862-32.39742936 32.39742862-18.51281666 0-32.39742862-18.51281666-32.39742861-37.02563333v-300.83326844H178.2417157c-18.51281666 4.62820399-37.02563333-13.88461268-37.02563262-32.39742934s18.51281666-32.39742862 32.39742863-32.39742861h300.83326916v-300.83326845c4.62820399-18.51281666 18.51281666-37.02563333 37.02563261-37.02563334s32.39742862 18.51281666 32.39742935 32.39742862v305.46147317h305.46147243c18.51281666 0 32.39742862 18.51281666 32.39742934 32.39742861s-9.25640796 37.02563333-27.76922535 37.02563333z"  horiz-adv-x="1027" />

    
    <glyph glyph-name="xinwen" unicode="&#59044;" d="M666.087 656.723h155.66v38.913h-155.66v-38.913z m-77.83 38.913h-233.49v-233.488h233.49V695.636z m-38.915-194.574h-155.66v155.66h155.66v-155.66z m-194.576-389.15h466.981v38.915H354.766v-38.915zM880.119 831.84H296.394c-42.984 0-77.83-34.846-77.83-77.83v-19.458h-77.83c-42.984 0-77.828-34.846-77.828-77.83v-642.098c0-42.984 34.845-77.83 77.828-77.83H880.12c42.986 0 77.831 34.846 77.831 77.83V754.01c-0.001 42.984-34.846 77.83-77.832 77.83z m38.917-817.216c0-21.493-17.424-38.917-38.917-38.917H140.734c-21.491 0-38.915 17.424-38.915 38.917V656.723c0 21.491 17.424 38.913 38.915 38.913h77.83v-583.724h38.915V754.01c0 21.493 17.422 38.915 38.915 38.915H880.12c21.493 0 38.917-17.422 38.917-38.915v-739.386z m-564.27 214.033h466.981v38.915H354.766v-38.915z m311.321 330.776h155.66V598.35h-155.66v-38.917z m0-97.286h155.66v38.915h-155.66v-38.915zM354.766 345.4h466.981v38.917H354.766V345.4z"  horiz-adv-x="1024" />

    
    <glyph glyph-name="ins" unicode="&#58887;" d="M318.165333 847.573333c-76.416-3.413333-142.634667-22.144-196.096-75.392C68.394667 718.677333 49.92 652.202667 46.506667 576.597333c-2.133333-47.189333-14.72-403.712 21.717333-497.194666A236.586667 236.586667 0 0 1 204.8-56.832c29.696-11.52 63.573333-19.370667 113.365333-21.674667 415.872-18.773333 570.026667-8.533333 635.008 157.866667 11.52 29.653333 19.498667 63.530667 21.674667 113.152 19.029333 416.938667-3.072 507.306667-75.52 579.669333C841.813333 829.525333 774.144 868.608 318.122667 847.573333m3.84-842.24c-45.568 2.090667-70.272 9.685333-86.741334 16.042667a152.746667 152.746667 0 0 0-88.661333 88.405333c-27.733333 71.04-18.517333 408.448-16.042667 463.018667 2.432 53.504 13.226667 102.4 50.986667 140.117333C228.266667 759.466667 288.597333 782.293333 699.392 763.733333c53.632-2.432 102.613333-13.226667 140.458667-50.858666 46.677333-46.592 69.845333-107.392 50.986666-516.650667-2.048-45.397333-9.685333-70.058667-16.085333-86.485333-42.24-108.330667-139.477333-123.392-552.789333-104.405334M704 633.173333a56.021333 56.021333 0 1 1 112.128 0c0 30.848-25.173333 55.893333-56.106667 55.893334-30.976 0-56.021333-25.045333-56.021333-55.893334m-433.066667-248.661333c0-132.096 107.349333-239.189333 239.786667-239.189333 132.48 0 239.786667 107.093333 239.786667 239.189333 0 132.138667-107.306667 239.189333-239.786667 239.189333-132.437333 0-239.786667-107.093333-239.786667-239.189333m84.138667 0a155.477333 155.477333 0 0 0 155.648 155.306667 155.477333 155.477333 0 0 0 155.690667-155.306667c0-85.76-69.717333-155.306667-155.690667-155.306667a155.477333 155.477333 0 0 0-155.648 155.306667"  horiz-adv-x="1024" />

    
    <glyph glyph-name="pinterest" unicode="&#59041;" d="M447.838437 224.613778a839.455158 839.455158 0 0 0-125.172565-319.589527c-7.989738-11.185633-17.577424-28.230408-32.491602-30.361005-42.611937 204.537297 43.144586 378.71359 74.03824 547.56339C329.057662 500.52607 343.97184 641.678111 435.587505 663.516729a80.430031 80.430031 0 0 0 106.529842-74.03824 350.483181 350.483181 0 0 0-25.567162-125.705214c-27.697759-71.907644-63.917905-170.447748 25.567162-201.874052a134.227601 134.227601 0 0 1 120.378722 28.230408c66.581152 53.264921 109.193088 170.980397 100.138052 299.348858S660.898121 792.950488 521.876677 793.483137a276.97759 276.97759 0 0 1-289.761171-292.424418 176.306889 176.306889 0 0 1 29.828356-90.550366 63.385256 63.385256 0 0 0 18.642722-30.361005c2.663246-18.110073-10.120335-73.505591-25.567162-78.832083C222.52782 290.129631 169.262899 348.721045 150.620176 380.147348 71.255444 521.832039 140.499841 700.802174 234.246103 788.156645A426.11937 426.11937 0 0 0 494.178918 894.686487c193.351664 13.31623 325.448669-76.168837 382.974783-197.612858a450.621233 450.621233 0 0 0-48.471078-413.335788c-61.254659-83.625926-201.341402-175.77424-329.709862-106.529843a213.059685 213.059685 0 0 0-51.134324 47.40578z"  horiz-adv-x="1024" />

    
    <glyph glyph-name="gengduo" unicode="&#58962;" d="M503.253333-89.216C237.12-89.216 21.333333 126.549333 21.333333 392.746667S237.098667 874.666667 503.253333 874.666667c266.197333 0 481.962667-215.765333 481.962667-481.92 0-266.197333-215.765333-481.962667-481.941333-481.962667z m0 64c230.826667 0 417.962667 187.114667 417.962667 417.941333S734.08 810.666667 503.253333 810.666667 85.333333 623.552 85.333333 392.746667c0-230.826667 187.114667-417.962667 417.92-417.962667zM568.96 384l-157.525333-126.784A31.04 31.04 0 0 1 455.317333 213.333333l179.477334 148.714667a31.04 31.04 0 0 1 0 43.904L455.317333 576a31.04 31.04 0 0 1-43.882666-43.882667L568.96 384z"  horiz-adv-x="1024" />

    
    <glyph glyph-name="sousuo" unicode="&#58908;" d="M889.4 45.6L737.8 198.3c57.8 68.1 86.8 154.7 81.8 244-5 90.2-44.3 173.8-110.5 235.2-64.5 59.8-148.4 92.8-236.3 92.8-45.2 0-89.2-8.6-130.8-25.5-43.1-17.5-81.7-43.1-114.8-76.3-63.9-63.9-100-148.8-101.7-239.2-1.7-90.4 31.3-176.6 92.7-242.8 33.4-36 73.1-64 117.9-83.1 43.4-18.5 89.4-27.9 136.8-27.9 82.2 0 161.8 29.2 224.5 82.4L847 5.3c5.6-5.9 13.2-9.2 21.3-9.2 7.5 0 14.7 2.8 20.1 8 11.7 11.1 12.2 29.7 1 41.5zM474 132.9C314.7 133 185 262.8 184.8 422c0 159.5 129.7 289.2 289.2 289.2S763.2 581.5 763.2 422c-0.1-159.4-129.8-289.1-289.2-289.1z"  horiz-adv-x="1024" />

    
    <glyph glyph-name="icon_email-2" unicode="&#58917;" d="M936.2 433.095l-88.86 77.265V784.6800000000001c0 11.595-7.725 19.32-19.32 19.32h-620.1c-11.595 0-19.335-7.725-19.335-19.32v-280.11l-88.86-71.475c-5.79-3.87-7.725-9.66-7.725-15.45V-26.700000000000045c0-11.595 7.725-19.32 19.32-19.32h811.35c11.61 0 19.335 7.725 19.335 19.32V417.63c0 5.805-1.95 11.595-5.805 15.45z m-90.795 25.11l46.365-38.64-46.35-30.9v69.54zM227.225 765.36h579.555v-403.74l-198.99-137.16H426.2l-198.975 137.16V765.36zM188.6 454.35v-67.605l-44.43 30.9 44.43 36.705z m-57.945-73.41l256.935-175.8-256.95-193.17V380.92499999999995zM169.28-7.350000000000023L426.2 185.82000000000005h179.67l258.855-193.185H169.28z m734.085 19.32L646.43 205.14l256.935 175.8v-368.985zM729.5 475.605H304.505v-38.655H729.5v38.64z m0 96.57H304.505v-38.625H729.5v38.625z m-309.09 96.6h-115.905v-38.64h115.905v38.64z"  horiz-adv-x="1024" />

    
    <glyph glyph-name="xiezuoyex" unicode="&#58925;" d="M582.075733 713.386667H296.413867c-62.429867 0-113.800533-46.967467-113.800534-105.949867v-446.839467c0-59.016533 51.370667-105.984 113.800534-105.984h397.038933c62.429867 0 113.800533 46.967467 113.800533 105.984v324.744534a22.186667 22.186667 0 1 1-44.373333 0v-324.744534c0-33.553067-30.651733-61.610667-69.4272-61.610666H296.413867c-38.741333 0-69.4272 28.0576-69.4272 61.610666V607.402667c0 33.553067 30.651733 61.610667 69.4272 61.610666h285.696a22.186667 22.186667 0 0 1 0 44.373334zM495.616 356.2496l300.066133 315.869867a22.186667 22.186667 0 0 1-32.187733 30.583466l-300.032-315.869866a22.186667 22.186667 0 0 1 32.1536-30.583467z"  horiz-adv-x="1024" />

    
    <glyph glyph-name="jian" unicode="&#58929;" d="M801.171 348.411H222.83c-17.673 0-32 14.327-32 32s14.327 32 32 32h578.341c17.673 0 32-14.327 32-32s-14.327-32-32-32z"  horiz-adv-x="1024" />

    
    <glyph glyph-name="email2" unicode="&#58880;" d="M938.666667 42.66666699999996L85.333333 42.66666699999996c-47.061333 0-85.333333 38.272-85.333333 85.333333L0 640c0 47.061333 38.272 85.333333 85.333333 85.333333l853.333333 0c47.061333 0 85.333333-38.272 85.333333-85.333333l0-512C1024 80.93866700000001 985.728 42.66666699999996 938.666667 42.66666699999996zM85.333333 682.666667c-23.530667 0-42.666667-19.136-42.666667-42.666667l0-512c0-23.530667 19.136-42.666667 42.666667-42.666667l853.333333 0c23.530667 0 42.666667 19.136 42.666667 42.666667L981.333333 640c0 23.530667-19.136 42.666667-42.666667 42.666667L85.333333 682.666667zM512 273.25866699999995L137.749333 515.413333c-9.898667 6.421333-12.736 19.605333-6.336 29.504s19.605333 12.714667 29.504 6.336L512 324.074667 863.082667 551.253333c9.898667 6.378667 23.104 3.562667 29.504-6.336s3.562667-23.082667-6.336-29.504L512 273.25866699999995zM128.021333 170.66666699999996c-6.890667 0-13.674667 3.328-17.770667 9.493333-6.549333 9.813333-3.904 23.04 5.909333 29.589333l192 128c9.813333 6.549333 23.061333 3.904 29.589333-5.909333 6.549333-9.813333 3.904-23.04-5.909333-29.589333l-192-128C136.192 171.84000000000003 132.074667 170.66666699999996 128.021333 170.66666699999996zM895.978667 170.66666699999996c-4.053333 0-8.170667 1.173333-11.818667 3.584l-192 128c-9.813333 6.549333-12.458667 19.776-5.909333 29.589333 6.528 9.813333 19.754667 12.458667 29.589333 5.909333l192-128c9.813333-6.549333 12.458667-19.776 5.909333-29.589333C909.653333 173.99466700000005 902.869333 170.66666699999996 895.978667 170.66666699999996z"  horiz-adv-x="1024" />

    
    <glyph glyph-name="huidaodingbu" unicode="&#59016;" d="M533.997992 665.317517a28.071724 28.071724 0 0 1-43.99669 0L127.929026 239.227586c-12.076138-14.194759-6.814897-25.847172 11.828966-25.847172h135.379862c18.608552 0 33.82731-15.36 33.82731-34.145104v-273.054896c0-18.820414 15.183448-34.145103 33.82731-34.145104h338.414345a34.039172 34.039172 0 0 1 33.827311 34.145104V179.2c0 18.785103 15.183448 34.145103 33.82731 34.145103h135.379862c18.608552 0 23.905103 11.652414 11.828966 25.847173L533.997992 665.317517zM173.620612 759.454897h676.758069c37.428966 0 67.689931 30.543448 67.689931 68.290206A67.937103 67.937103 0 0 1 850.378681 896H173.620612C136.191647 896 105.930681 865.456552 105.930681 827.745103c0-37.746759 30.260966-68.290207 67.689931-68.290206z"  horiz-adv-x="1024" />

    
    <glyph glyph-name="you-tube" unicode="&#59082;" d="M710.08711113 383.08977777999996L376.2631111 187.05066666000005V579.24266668l333.82400003-196.1528889z m311.86488886-181.70311112V565.9306666800001s0 175.67288889-175.78666667 175.67288886H177.94844445S2.27555555 741.60355556 2.27555555 565.9306666800001v-364.54400002s0-175.67288889 175.6728889-175.67288887h668.21688889c0-0.11377779 175.78666668-0.11377779 175.78666665 175.67288887"  horiz-adv-x="1024" />

    
    <glyph glyph-name="search" unicode="&#58920;" d="M400.696889 94.606222A400.668444 400.668444 0 1 0 400.696889 896a400.668444 400.668444 0 0 0 0-801.393778z m0 89.031111a311.637333 311.637333 0 1 1 0 623.331556 311.637333 311.637333 0 0 1 0-623.331556zM667.904 294.00177799999994l314.766222-314.823111-62.919111-62.976-314.823111 314.823111z"  horiz-adv-x="1024" />

    
    <glyph glyph-name="FB" unicode="&#59070;" d="M512 384m-480 0a480 480 0 1 1 960 0 480 480 0 1 1-960 0ZM672 762.464v-121.856h-69.76c-25.504 0-42.688-5.536-51.584-16.608-8.864-11.072-13.312-27.68-13.312-49.856v-87.232h130.24l-17.376-136.608h-112.864V0h-136V350.304H288v136.64h113.344V587.52c0 57.216 15.392 101.6 46.208 133.12C478.4 752.256 519.392 768 570.656 768c43.552 0 77.344-1.856 101.344-5.536z"  horiz-adv-x="1024" />

    
    <glyph glyph-name="duobianxing" unicode="&#58889;" d="M680.71-19.22H343.29c-39.53 0-76.37 21.27-96.12 55.52L78.46 328.51c-19.75 34.22-19.75 76.77 0 110.99l168.71 292.2c19.75 34.24 56.6 55.52 96.12 55.52h337.42c39.53 0 76.37-21.27 96.12-55.52l168.71-292.2c19.75-34.22 19.75-76.77 0-110.99L776.83 36.3c-19.75-34.24-56.59-55.52-96.12-55.52zM343.29 720.31c-15.7 0-30.35-8.43-38.21-22.04l-168.71-292.2c-7.84-13.61-7.84-30.52 0-44.13l168.71-292.2c7.86-13.61 22.51-22.04 38.21-22.04h337.42c15.7 0 30.35 8.43 38.21 22.04l168.71 292.2c7.84 13.61 7.84 30.52 0 44.13l-168.71 292.2c-7.86 13.61-22.51 22.04-38.21 22.04H343.29z"  horiz-adv-x="1024" />

    
    <glyph glyph-name="map" unicode="&#59031;" d="M512 853.333333C298.666667 853.333333 124.586667 687.573333 124.586667 484.48c0-196.48 347.093333-544.853333 362.666666-559.36A35.626667 35.626667 0 0 1 512-85.333333a35.84 35.84 0 0 1 26.026667 11.52l120.32 131.2c159.573333 186.24 240.64 330.24 240.64 426.666666C898.773333 688.213333 725.333333 853.333333 512 853.333333z m0-536.533333a171.733333 171.733333 0 0 0-176 167.466667A171.733333 171.733333 0 0 0 512 651.946667a171.733333 171.733333 0 0 0 176-167.466667A171.733333 171.733333 0 0 0 512 316.8z"  horiz-adv-x="1024" />

    
    <glyph glyph-name="uparrow" unicode="&#58903;" d="M793.93579 634.915178L546.282573 882.568395c-17.908807 17.908807-47.586259 17.908807-65.495065 0L232.622611 634.915178c-17.908807-17.908807-17.908807-47.586259 0-65.495066s47.586259-17.908807 65.495065 0L465.948782 736.739538v-814.083198c0-25.58401 20.978888-46.562898 46.562898-46.562898s46.562898 20.978888 46.562898 46.562898V738.786259l169.366147-169.366147c17.908807-17.908807 47.586259-17.908807 65.495065 0 18.420487 17.908807 18.420487 47.586259 0 65.495066z"  horiz-adv-x="1024" />

    
    <glyph glyph-name="uparrow2" unicode="&#58904;" d="M1010.688 177.664l-470.528 470.528c-7.68 7.68-17.408 11.264-27.136 11.264s-19.968-3.584-27.136-11.264L15.36 177.664c-14.848-14.848-14.848-38.912 0-53.76 14.848-14.848 38.912-14.848 53.76 0l443.904 443.904 443.904-443.904c14.848-14.848 38.912-14.848 53.76 0 14.848 14.848 14.848 38.912 0 53.76z"  horiz-adv-x="1024" />

    
    <glyph glyph-name="previousstep" unicode="&#58905;" d="M264.704 667.648L16.896 419.328c-17.92-17.92-17.92-47.616 0-65.536l247.808-247.808c17.92-17.92 47.616-17.92 65.536 0s17.92 47.616 0 65.536l-167.424 167.424h814.592c25.6 0 46.592 20.992 46.592 46.592s-20.992 46.592-46.592 46.592H160.768l169.472 169.472c17.92 17.92 17.92 47.616 0 65.536-17.92 18.432-47.616 18.432-65.536 0.512z"  horiz-adv-x="1024" />

    
    <glyph glyph-name="previousstep2" unicode="&#58906;" d="M721.408 883.2L250.88 413.184c-7.68-7.68-11.264-17.408-11.264-27.136s3.584-19.968 11.264-27.136l470.528-470.528c14.848-14.848 38.912-14.848 53.76 0 14.848 14.848 14.848 38.912 0 53.76L331.264 385.536 775.168 829.44c14.848 14.848 14.848 38.912 0 53.76-14.848 14.848-38.912 14.848-53.76 0z"  horiz-adv-x="1024" />

    
    <glyph glyph-name="downarrow" unicode="&#58919;" d="M232.727273 137.462537l247.560439-247.560439c17.902098-17.902098 47.568432-17.902098 65.47053 0l247.560439 247.560439c17.902098 17.902098 17.902098 47.568432 0 65.47053s-47.568432 17.902098-65.470529 0L560.591409 35.67632400000002V849.454545c0 25.574426-20.971029 46.545455-46.545455 46.545455s-46.545455-20.971029-46.545454-46.545455v-815.824175l-169.302698 169.302697c-17.902098 17.902098-47.568432 17.902098-65.470529 0s-17.902098-47.568432 0-65.47053z"  horiz-adv-x="1024" />

    
    <glyph glyph-name="downarrow2" unicode="&#58922;" d="M15.36 593.9200000000001l470.528-470.528c7.68-7.68 17.408-11.264 27.136-11.264s19.968 3.584 27.136 11.264L1010.688 593.9200000000001c14.848 14.848 14.848 38.912 0 53.76-14.848 14.848-38.912 14.848-53.76 0l-443.904-443.904-443.904 443.904c-14.848 14.848-38.912 14.848-53.76 0C0.512 632.832 0.512 608.768 15.36 593.9200000000001z"  horiz-adv-x="1024" />

    
    <glyph glyph-name="nextstep" unicode="&#58923;" d="M762.368 105.47199999999998l247.808 247.808c17.92 17.92 17.92 47.616 0 65.536l-247.808 247.808c-17.92 17.92-47.616 17.92-65.536 0s-17.92-47.616 0-65.536l167.424-167.424H49.664c-25.6 0-46.592-20.992-46.592-46.592s20.992-46.592 46.592-46.592h816.64l-169.984-168.96c-17.92-17.92-17.92-47.616 0-65.536 18.432-18.432 48.128-18.432 66.048-0.512z"  horiz-adv-x="1024" />

    
    <glyph glyph-name="nextstep2" unicode="&#58924;" d="M304.64-111.61599999999999l470.528 470.528c7.68 7.68 11.264 17.408 11.264 27.136s-3.584 19.968-11.264 27.136L304.64 883.2C289.792 898.048 265.728 898.048 250.88 883.2c-14.848-14.848-14.848-38.912 0-53.76l443.904-443.904L250.88-58.36800000000005c-14.848-14.848-14.848-38.912 0-53.76 14.848-14.336 39.424-14.336 53.76 0.512z"  horiz-adv-x="1024" />

    
    <glyph glyph-name="weixiu" unicode="&#59024;" d="M164.992 532.629333L462.656 830.293333l257.898667-69.12a10.666667 10.666667 0 0 0 4.778666-17.834666L594.24 612.266667a117.333333 117.333333 0 0 1 165.930667-165.930667l131.093333 131.093333a10.666667 10.666667 0 0 0 17.856-4.778666l69.098667-257.898667L680.533333 17.088l-204.373333 54.741333-93.141333-93.141333a181.333333 181.333333 0 1 0-256.426667 256.426667l93.141333 93.162666-54.762666 204.373334z m449.770667 190.656l-132.970667 35.626667L236.373333 513.493333l54.762667-204.373333-119.274667-119.253333a117.333333 117.333333 0 1 1 165.930667-165.973334l119.274667 119.296 204.373333-54.741333L906.816 333.866667l-35.626667 132.970666-65.792-65.770666a181.333333 181.333333 0 1 0-256.426666 256.426666l65.770666 65.792zM224.64 76.736a42.666667 42.666667 0 1 0 60.330667 60.330667 42.666667 42.666667 0 0 0-60.330667-60.330667z"  horiz-adv-x="1024" />

    
    <glyph glyph-name="anzhuangyewu" unicode="&#58940;" d="M963.568318 774.734267H351.741083a131.550598 131.550598 0 0 1-129.804497-110.366767H88.277489v184.823154A44.146707 44.146707 0 1 1 0.082911 849.157708v-908.137297a44.146707 44.146707 0 1 1 88.227523 0V576.107031h137.381917a131.418817 131.418817 0 0 1 126.048732-94.618912h83.812853c23.29233 0 44.113762-15.15484 44.113761-32.780577 0-66.878967 59.235656-121.073991 132.341285-121.073992h142.422548c24.379525 0 44.113762-19.767182 44.113762-44.146707v-259.83961c0-73.138574 59.235656-132.440121 132.341285-132.440121h32.681741c73.105629 0 132.341285 59.301547 132.341285 132.440121V642.294146a132.769574 132.769574 0 0 1-132.341285 132.440121z m44.146707-751.712995c0-24.379525-19.767182-44.146707-44.146707-44.146707h-32.747632c-24.379525 0-44.146707 19.767182-44.146707 44.146707V283.486843c0 73.138574-59.235656 132.440121-132.308339 132.440121h-142.422548c-23.325275 0-44.146707 15.121894-44.146707 32.780578 0 66.846021-59.202711 121.073991-132.30834 121.073991h-83.746962c-24.379525 0-44.146707 19.767182-44.146707 44.146707v28.365906c0 24.379525 19.767182 44.146707 44.146707 44.146707h611.827235c24.379525 0 44.146707-19.767182 44.146707-44.146707v-619.272874z"  horiz-adv-x="1120" />

    
    <glyph glyph-name="arrow_right" unicode="&#59233;" d="M941.34 429.344a63.508 63.508 0 0 1-2.914 2.719L685.134 685.344c-24.882 24.881-65.599 24.881-90.482 0-24.885-24.883-24.885-65.602 0-90.485l146.861-146.855H127.996c-35.2 0-64-28.8-64-64s28.8-64 64-64h613.517l-146.86-146.855c-24.885-24.883-24.885-65.602 0-90.485 24.882-24.881 65.599-24.881 90.482 0l253.292 253.281a64.641 64.641 0 0 1 2.914 2.719c12.467 12.466 18.686 28.907 18.661 45.34 0.024 16.433-6.195 32.873-18.662 45.34z"  horiz-adv-x="1024" />

    
    <glyph glyph-name="zhuangtaitiaozheng" unicode="&#58930;" d="M0 784m48 0l928 0q48 0 48-48l0 0q0-48-48-48l-928 0q-48 0-48 48l0 0q0 48 48 48ZM192 896m80 0l0 0q80 0 80-80l0-160q0-80-80-80l0 0q-80 0-80 80l0 160q0 80 80 80ZM0 432m48 0l928 0q48 0 48-48l0 0q0-48-48-48l-928 0q-48 0-48 48l0 0q0 48 48 48ZM672 544m80 0l0 0q80 0 80-80l0-160q0-80-80-80l0 0q-80 0-80 80l0 160q0 80 80 80ZM0 80m48 0l928 0q48 0 48-48l0 0q0-48-48-48l-928 0q-48 0-48 48l0 0q0 48 48 48ZM384 192m80 0l0 0q80 0 80-80l0-160q0-80-80-80l0 0q-80 0-80 80l0 160q0 80 80 80Z"  horiz-adv-x="1024" />

    
    <glyph glyph-name="zhaomingdeng" unicode="&#59107;" d="M575.1808 66.8672c17.5616 0 31.8208-14.1312 31.8208-31.5904 0-16.1024-12.16-29.4144-28.0064-31.3344l-3.2-0.256h-125.6704a31.6928 31.6928 0 0 0-31.7952 31.5904c0 16.128 12.1344 29.44 27.904 31.36l3.8912 0.256h125.056z m34.2016 71.0656c17.5616 0 31.7952-14.1312 31.7952-31.5904 0-16.128-12.1344-29.44-27.9808-31.36l-3.2-0.2304h-195.3792a31.6928 31.6928 0 0 0-31.7952 31.5904c0 16.1024 12.1344 29.44 27.9808 31.3344l3.2 0.256h195.3792zM512 764.288c164.864 0 298.5216-132.5056 298.5216-296.0128 0-97.8176-48.2048-187.4944-127.1808-242.432l-5.0688-3.4048-6.4512-29.696a57.088 57.088 0 0 0-50.7136-44.4416l-4.4032-0.256h-209.792a57.1392 57.1392 0 0 0-55.1168 41.4976l-0.9984 4.1472-5.12 24.4736-1.2032 5.0944-5.2992 3.6096a295.04 295.04 0 0 0-125.184 223.8208l-0.384 8.7808-0.128 8.8064C213.4784 631.7824 347.136 764.288 512 764.288z m0-63.1552c-129.7664 0-234.9312-104.2688-234.9312-232.8576a231.7824 231.7824 0 0 1 96.0768-187.8528l6.528-4.608 1.9712-1.28c10.6496-7.0656 15.4368-13.0048 20.4544-23.9616 0.896-1.9456 1.6896-3.968 2.3552-6.016l1.536-5.1968 1.3824-5.632 2.56-11.8784 2.176-10.5984h198.656l5.8112 26.624 4.2752 20.352 2.7648 4.0448 17.4848 11.4176c66.0736 43.1872 105.8304 115.8656 105.8304 194.56 0 128.6144-105.1648 232.8832-234.9312 232.8832z m-54.3232-49.7408a31.7952 31.7952 0 0 0 37.12-25.2416c3.2-17.152-8.192-33.664-25.4464-36.864-56.96-10.5216-83.0208-44.544-86.784-112.4608a31.744 31.744 0 0 0-33.536-29.7984 31.6672 31.6672 0 0 0-30.0032 33.28c5.376 96.3584 51.584 154.9824 138.6496 171.0848z"  horiz-adv-x="1024" />

    


  </font>
</defs>
</svg>
